<?xml version="1.0" encoding="utf-8"?>
<!-- Generator: Adobe Illustrator 21.1.0, SVG Export Plug-In . SVG Version: 6.00 Build 0)  -->
<svg version="1.1" id="Layer_1" xmlns="http://www.w3.org/2000/svg" xmlns:xlink="http://www.w3.org/1999/xlink" x="0px" y="0px"
	 viewBox="0 0 400 400" style="enable-background:new 0 0 400 400;" xml:space="preserve">
<style type="text/css">
	.st0{fill:#AA3A24;stroke:#732919;stroke-miterlimit:10;}
	.st1{fill:#AA3A24;}
	.st2{fill:#DD846F;}
	.st3{fill:none;stroke:#732919;stroke-miterlimit:10;}
	.st4{fill:#AA3A24;stroke:#732919;stroke-width:4;stroke-miterlimit:10;}
</style>
<g id="bacon">
	<g id="bacon_">
		<path class="st0" d="M56.3,290.5c0,0,6.3,7.8,9.7,8.8c3.3,0.9,5.7,0,5.7,0s2.7,3.7,3,5.3c0.3,1.6,1.2,2.6,4.6,2.1
			c3.5-0.5,7.4-1.5,9.4-0.7s5.5-1.4,5.5-1.4l2.9,1.4c0,0,3-1.9,4.3-1.8s3.5-0.1,4.8-0.7s1.4-1.4,1.4-1.4s0.2,0.3,1.1,0.3
			s3.4-1.1,4.2-2.4c0.8-1.2,2.6-0.7,2.6-0.7c2.1-1.5,4.3-2.7,6.6-3.7c3.6-1.5,9.1-3.4,9.9-3.8s1.6-0.7,3.4-2.7s4.9-3.6,6.3-4.4
			s10.4-7.1,11.6-8.1c1.1-1,10.5-8.3,13.2-9.6c2.7-1.3,14.6-9.7,17.8-10.4c3.2-0.7,5-3.2,6.6-3.4s1.4-2.1,1.4-2.1s1.2-0.1,3.1-0.3
			c9.1-0.8,35.5-3.2,41.3-6c7.1-3.4,56.9-3,66.3-1.9s10.9,0.6,10.9,0.6s25.2-5.5,39.2-3.2c5.1,0.9,10.8-14.8,12.7-17.6
			c0,0,2.2-2.4,1.1-2.5s-2.9-1.1-3.9-1.9c-0.9-0.9-4.6-1.9-5.2-3.9c-0.4-1.2-1.2-2.1-2.4-2.6c0,0-0.9,0.2-3.4-0.6s-4.2-1.9-4.5-3.1
			c-0.3-1.2-18.5-2-18.5-2s-45.2,2.1-55.5,0s-18.3-5.6-27.1-5s-33-0.3-44.7,5.3c0,0-52.9,14.4-59.3,14.4s-35.3,2.9-35.3,2.9
			l-29.7,3.8c0,0-26.1-1.3-28.9,0c-2.9,1.3-23.4,12.6-24.6,15.1s-0.4,6.7,2.1,6.7s2.5,0,5.9,0.4c3.3,0.4,2.2,3.1,3.8,4.3
			c1.6,1.2,5,2.4,5,2.4s-0.8-1.3,0,6.3c0.8,7.5-1.3,8.8,4.1,9.2c5.4,0.4,12.5,2.5,12.5,2.5s4.5,1.4,8.2-1.6
			c3.7-3.1,8.7-7.3,12.1-7.3s19.6-2.6,19.6-2.6l-3.2,6.5l-11.2,7.5c0,0-11.4,7.5-13.9,7.5h-6.8L56.3,290.5z"/>
		<path class="st1" d="M249.9,200.5c0,0,23.6,5.8,32.2,5.9c8.8,0.1,8.6,0.1,35.7,0h20.8c0,0,11.6-4.3,16.4-5.9
			c4.8-1.6,10.6-6.9,8.2-9.8c-2.4-2.9-2.9-7.7-8.7-7.2c-5.8,0.5-8.2,0-8.2,0s-11.6-9.1-17.9-7.2s-24.6,7.7-24.6,7.7
			s-41.8,16.6-47.9,16.6h6.1"/>
		<path class="st2" d="M46.8,251.9l-6,4.6l-5-2.4l-3.8-4.3l8.6-6.6c0,0,7.6,1,11.5,0s8,0,12-2.9s7.7-4.4,10-2.9s-4,1.5,2.3,1.5
			s10.9,0.4,15.2-2c4.3-2.4,3.2-5.1,7.9-4.8c4.6,0.4,4.2,2.9,8.4,2.9c4.2,0,7.6-2.9,10.6-2.9c3.1,0,6.3-2.8,10.7-2.6
			c4.3,0.2,10.2-1.4,13.8-1.4s7-0.2,13.3-1.6s8.1-0.9,12.2-2.5c4.1-1.6,2.7-1.6,6.1-1.4s3.4,3.4,6.8-0.1c3.4-3.5,2-3.3,7.1-3.1
			c5.2,0.2,4.6,0.5,8.9,0.9c4.3,0.4-0.5-1.4,4.3,0.4s8.4,2.5,14.3,0.4c5.9-2.1,5.2-0.7,11.1-3s4.6-3.2,11.1-2.9
			c6.4,0.4,8,3.9,11.6,4.6s13-4.8,17.9-4.7c4.9,0,7.5,0.9,14.4,1.5s3.7,2,14.6,0.9s14.4,2,22.4,0s9.3-0.9,17-2.3
			c7.7-1.4,9.1,2.9,15.7,2.9s9.9-6.3,11.3,0.7c0.5,2.6,1.2,3.6,1.8,3.7c1.1,0.2,2-1.8,2-1.8s-12-0.7-15.8,1.2s-12-1.2-12-1.2
			l-6.6,1.2l-11.1,1.2l-16.7,0.5l-18.6,0.7c0,0-9-4.2-13.2-2.6c-4.2,1.6-13.4,3.5-19.3,4.2c-5.9,0.7-6.8-3.8-10.4-3.8
			s-5.4-1.9-10.1-0.2s-13.7,3.8-17.9,4.7s-9,1.7-13,0.5s-5.7-2.8-9-2.1s-1.2-0.5-5,1.9s-21.5,3.3-25.2,3.5
			c-3.8,0.2-20.6-1.3-24.3,1.3s-8.7,4.2-8.7,4.2s-5.1-1.2-10.2,0.7s-17.4,2.4-21.1,3.4s-20.3,0-24.7,3.4s-10.2,2.9-13.6,3.6
			C57,247.2,46.8,251.9,46.8,251.9z"/>
		<line class="st3" x1="97.4" y1="262.9" x2="97.4" y2="262.9"/>
		<path class="st4" d="M97.4,262c0,0-0.4,2,4.3,0s2.9-1.3,9.4-4.2s2.5-3.8,10-4.1s5.1-2.1,16.4-1.9c11.4,0.2,11.2-1.4,19.6-1.8
			c8.4-0.4,8,0.2,14.3,0s14.1-1,16.6-0.1c1.4,0.5,2.8,0.9,4.3,1.2l-1.7-0.3"/>
		<path class="st2" d="M71.9,300.2l-0.9,3.2l-1.8-1l-1.8-2.2l1.3-4.6c0,0,2.3-0.1,3.3-1c0.9-0.9,2.3-0.7,2.9-2.7
			c0.6-2.1,1.4-3.2,2.3-2.6c0.9,0.7-0.9,1.2,0.9,0.7s3.2-0.7,4-2.5s0-3.3,1.4-3.5s1.7,1.3,2.9,1s1.6-2.4,2.5-2.6s1.3-2.2,2.6-2.5
			c1.3-0.3,2.6-1.7,3.7-2c1-0.3,2-0.7,3.5-2.1s2.1-1.2,3-2.5s0.5-1.2,1.5-1.4c1-0.2,1.6,1.7,1.9-0.6s0-2.1,1.5-2.5
			c1.5-0.3,1.4-0.1,2.7-0.2c1.3-0.1-0.4-0.8,1.3-0.1s2.8,0.8,4.1-1c1.3-1.8,1.3-0.9,2.6-2.7c1.3-1.9,0.7-2.3,2.6-2.6
			c1.9-0.3,3,1.7,4.1,1.8c1.1,0.1,2.8-3.9,4.2-4.3s2.3-0.1,4.3-0.3c2.1-0.2,1.4,0.9,4.3-0.7s4.4,0,6.3-1.9s2.5-1.3,4.4-2.8
			s4.9-1,6.7-1.5s-1.5,4.5,1.6,1.4c0.3-0.4,0.2-0.9,1.1-0.7c0.3,0.1,3.3-2.1,3.3-2.1s-6.5,4.2-7.3,5.7c-0.7,1.4-3.6,0.3-3.6,0.3
			l-1.7,1.3l-2.9,1.6l-4.7,1.7l-5.2,2c0,0-3.3-1.8-4.2-0.4c-0.9,1.3-3.2,3.2-4.7,4.1s-2.6-1.7-3.6-1.4c-1,0.3-1.9-0.7-2.9,0.7
			c-1,1.4-3.2,3.4-4.2,4.3s-2.2,1.7-3.6,1.4s-2.1-1.2-2.9-0.5s-0.4-0.2-1.1,1.5s-5.5,3.8-6.5,4.2c-1,0.5-6.1,1-6.7,2.8
			c-0.4,1.2-1,2.3-1.7,3.2c-1.1-0.1-2.1,0.4-2.8,1.3c-1.1,1.5-4.5,2.9-5.4,3.8s-5.7,1.7-6.4,4.1c-0.7,2.4-2.4,2.6-3.2,3.3
			C73.9,296.5,71.9,300.2,71.9,300.2z"/>
		<path class="st2" d="M50.6,262.2l-6,4.5l-5-2.4l-3.8-4.3l8.6-6.6c0,0,7.6,1,11.5,0s8,0,12-2.9s7.7-4.4,10-2.9s-4,1.5,2.3,1.5
			s10.9,0.4,15.2-2c4.3-2.4,3.2-5.1,7.9-4.8c4.6,0.4,4.2,2.9,8.4,2.9s7.6-2.9,10.6-2.9c3.1,0,6.3-2.8,10.7-2.6
			c4.3,0.2,10.2-1.4,13.8-1.4s7-0.2,13.3-1.6s8.1-0.9,12.2-2.5c4.1-1.6,2.7-1.6,6.1-1.4s3.4,3.4,6.8-0.1c3.4-3.5,2-3.3,7.1-3.1
			c5.2,0.2,4.6,0.5,8.9,0.9c4.3,0.4-0.5-1.4,4.3,0.4s8.4,2.5,14.3,0.4c5.9-2.1,5.2-0.7,11.1-3s4.6-3.2,11.1-2.9
			c6.4,0.4,8,3.9,11.6,4.6c3.6,0.7,13-4.8,17.9-4.7c4.9,0,7.5,0.9,14.4,1.5s3.7,2,14.6,0.9s14.4,2,22.4,0s9.3-0.9,17-2.3
			s9.1,2.9,15.7,2.9s9.9-6.3,11.3,0.7c0.5,2.6,1.2,3.6,1.8,3.7c1.1,0.2,2-1.8,2-1.8s-12-0.7-15.8,1.2s-12-1.2-12-1.2l-6.6,1.2
			l-11.1,1.2l-16.7,0.5l-18.6,0.7c0,0-9-4.2-13.2-2.6s-13.4,3.5-19.3,4.2s-6.8-3.8-10.4-3.8s-5.4-1.9-10.1-0.2
			c-4.7,1.7-13.7,3.8-17.9,4.7s-9,1.6-13,0.5c-4-1.2-5.7-2.8-9-2.1s-1.2-0.5-5,1.9s-21.5,3.3-25.2,3.5s-20.6-1.3-24.3,1.3
			s-8.7,4.2-8.7,4.2s-5.1-1.2-10.2,0.7c-5.1,1.9-17.4,2.4-21.1,3.4s-20.3,0-24.7,3.4c-4.4,3.4-10.2,2.9-13.6,3.6
			C60.8,257.5,50.6,262.2,50.6,262.2z"/>
		<path class="st2" d="M87.6,306l-0.9,3.2l-1.8-1l-1.8-2.2l1.3-4.6c0,0,2.3-0.1,3.3-1c0.9-0.9,2.3-0.7,2.9-2.7
			c0.6-2.1,1.4-3.2,2.3-2.6c0.9,0.7-0.9,1.2,0.9,0.7s3.2-0.7,4-2.5s0-3.3,1.4-3.5s1.7,1.3,2.9,1c1.2-0.3,1.6-2.4,2.5-2.6
			s1.3-2.2,2.6-2.5c1.3-0.3,2.6-1.7,3.7-2c1-0.3,2-0.7,3.5-2.1s2.1-1.2,3-2.5s0.5-1.2,1.5-1.4s1.6,1.7,1.9-0.6
			c0.3-2.4,0-2.1,1.5-2.5c1.5-0.3,1.4-0.1,2.7-0.2c1.3-0.1-0.4-0.8,1.3-0.1c1.7,0.7,2.8,0.8,4.1-1s1.3-0.9,2.6-2.7
			c1.3-1.9,0.7-2.3,2.6-2.6c1.9-0.3,3,1.7,4.1,1.8s2.8-3.9,4.2-4.3s2.3-0.1,4.3-0.3s1.4,0.9,4.3-0.7s6.8-4.9,8.7-6.8s5.8-3,7.8-4.5
			s9.6-0.2,11.5-0.8s-12,10.3-8.9,7.2c0.3-0.4,0.2-0.9,1.1-0.7c0.3,0.1,3.3-2.1,3.3-2.1s-6.5,4.2-7.3,5.7s-3.6,0.3-3.6,0.3l-1.7,1.3
			l-2.9,1.6l-4.7,1.7l-5.2,2c0,0-3.3-1.8-4.2-0.4s-3.2,3.2-4.7,4.1s-2.6-1.7-3.6-1.4s-1.9-0.7-2.9,0.7c-1,1.4-3.2,3.4-4.2,4.3
			s-2.2,1.7-3.6,1.4s-2.1-1.2-2.9-0.5s-0.4-0.2-1.1,1.5s-5.5,3.8-6.5,4.2s-6.1,1-6.7,2.8c-0.4,1.2-1,2.3-1.7,3.2
			c-1.1-0.1-2.1,0.4-2.8,1.3c-1.1,1.5-4.5,2.9-5.4,3.8s-5.7,1.7-6.4,4.1c-0.7,2.4-2.4,2.6-3.2,3.3C89.7,302.3,87.6,306,87.6,306z"/>
		<path class="st2" d="M352.7,183.7l0.7,0.2c0,0-0.1-0.2,0,0c0.4,1.1-0.9,1.7-1.4,1.3c-0.6-0.4,0.5-0.6-0.6-0.4
			c-1.1,0.3-1.9,0.3-2.4,1.3s0,1.8-0.9,1.8c-0.8,0.1-1-0.7-1.8-0.6c-0.7,0.2-1,1.2-1.5,1.4c-0.5,0.1-0.8,1.2-1.6,1.3
			c-0.8,0.1-1.4,1.7-2.1,1.8s-1.4-0.4-2.3,0.3s-1.3,0.6-1.9,1.3s-0.3,0.6-0.9,0.7c-0.6,0.1-0.9-0.9-1.2,0.3
			c-0.2,1.2,0.3,1.7-0.6,1.9s-1.2-0.6-2-0.5s0.2,0.4-0.8,0.1s-1.7-0.4-2.5,0.5s-0.8,0.4-1.6,1.4c-0.8,1-0.5,1.2-1.6,1.4
			c-1.2,0.2-1.8-0.9-2.5-1s-1.8,2.1-2.6,2.2c-0.9,0.2-1.4,0-2.6,0.1c-1.3,0.1-0.9-0.5-2.6,0.3c-1.8,0.8-4.2,2.5-5.4,3.5
			s-3.6,1.6-4.8,2.3c-1.2,0.8-5.9,0-7,0.3s7.4-5.4,5.5-3.7c-0.2,0.2-0.1,0.5-0.7,0.4c-0.2,0-2,1.1-2,1.1s4-2.2,4.5-2.9
			c0.5-0.8,2.2-0.1,2.2-0.1l1-0.7l1.8-0.8l2.9-0.9l3.2-1c0,0,2,1,2.6,0.3s2-1.7,2.9-2.2s1.6,0.9,2.2,0.8c0.6-0.2,1.1,0.4,1.8-0.4
			c0.6-0.7,2-1.8,2.6-2.2c0.6-0.5,1.4-0.9,2.2-0.7c0.8,0.2,1.3,0.7,1.8,0.3s0.3,0.1,0.7-0.8s3.4-2,4-2.2s3.7-0.5,4.1-1.4
			c0.3-0.6,0.6-1.2,1.1-1.7c0.7,0.1,1.3-0.2,1.7-0.7c0.7-0.8,2.8-1.5,3.3-2s3.5-0.9,3.9-2.1L352.7,183.7z"/>
		<path class="st2" d="M278.5,205.9l-0.4,0.8l-2,0.2l-2.8-0.3l1.1-2c0,0,1.7,0.1,2.4-0.4c0.7-0.5,1.7-0.3,2.3-1.5
			c0.5-1.2,1.2-1.9,1.8-1.4c0.6,0.5-0.7,0.7,0.6,0.5c1.3-0.2,2.4-0.2,3-1.3c0.7-1.1,0.1-2,1.2-2c1,0,1.2,0.9,2.1,0.8
			c0.9-0.1,1.3-1.4,2-1.5s1.1-1.3,2-1.4c0.9-0.1,1.8-1.8,2.6-1.9c0.8-0.1,1.7,0.6,2.9-0.2s1.6-0.6,2.3-1.4c0.7-0.7,0.4-0.7,1.1-0.7
			c0.7-0.1,1.1,1.1,1.4-0.3c0.4-1.4-0.3-2,0.8-2.2c1.1-0.1,1.4,0.8,2.4,0.7c1,0-0.3-0.5,1,0c1.2,0.5,2,0.6,3.1-0.4s1-0.5,2-1.5
			c1-1.1,0.7-1.4,2.1-1.5s2.1,1.2,3,1.3c0.8,0.1,2.3-2.2,3.3-2.4s1.7,0.1,3.2,0c1.5,0,1,0.6,3.2-0.2s5.2-2.6,6.7-3.7
			c1.5-1,4.4-1.5,5.9-2.3s3.6,2.8,5,2.6s-5.8,3.2-3.4,1.5c0.3-0.2,0.2-0.5,0.9-0.4c0.2,0.1,2.5-1.1,2.5-1.1s-5,2.2-5.6,3.1
			c-0.6,0.8-2.7,0-2.7,0l-1.3,0.7l-2.2,0.8l-3.5,0.8l-3.9,0.9c0,0-2.4-1.2-3.1-0.5c-0.7,0.8-2.5,1.8-3.7,2.3s-2.9,3.9-3.7,4
			c-0.8,0.1,0.8-0.8,0,0s-3.2,0.2-4,0.7s-2.2-2.1-3.2-2.4s-0.9,1.7-1.5,2.1c-0.6,0.4-0.9-2.6-1.5-1.6s-0.1,2.7-0.9,3
			c-0.8,0.2-4.5,1.9-5,3c-0.3,0.7-1.4,2.1-2,2.7c-0.8-0.1-5.2-3.1-5.7-2.6c-0.9,0.9-2.6,3.7-3.3,4.2c-0.7,0.5-5.1-1.5-5.7,0
			c-0.6,1.4,1.2,2.7,0.6,3C281.5,206.7,278.5,205.9,278.5,205.9z"/>
	</g>
</g>
</svg>
