<?xml version="1.0" encoding="utf-8"?>
<!-- Generator: Adobe Illustrator 21.1.0, SVG Export Plug-In . SVG Version: 6.00 Build 0)  -->
<svg version="1.1" id="top_bun" xmlns="http://www.w3.org/2000/svg" xmlns:xlink="http://www.w3.org/1999/xlink" x="0px" y="0px"
	 viewBox="0 0 400 400" style="enable-background:new 0 0 400 400;" xml:space="preserve">
<style type="text/css">
	.st0{fill:#D1A866;}
	.st1{fill:#FCECC0;stroke:#685C33;stroke-miterlimit:10;}
</style>
<g id="bun1_1_">
	<path class="st0" d="M28,137.8c0,0-13.2-5.1-7.4-33.4c2.3-11.3,18.9-30.8,27.9-38.5c6-5.2,23-16.1,26.3-18.2
		c3.6-2.3,34.2-14.6,39.6-16.4c5.4-1.8,47.9-9.5,55.2-10.3s31.8-2.1,39.3-1.3s47.7,6.6,70.9,10c25.2,3.7,75.6,52.5,79.6,58
		c5.1,7,5.7,9.7,5.7,9.7s2.9,5.1,3.4,10.4c1.1,12.1-1.4,30.9-8.4,37.8c-6,5.9-34.6,10.6-34.6,10.6l-78.4,10.9c0,0-67.9-0.5-85.1-1.5
		c-12.1-0.8-89.5-8.9-105.7-13.4C38.1,147.1,28,137.8,28,137.8z"/>
	<path class="st1" d="M268.1,63.3c-0.4,0.1-0.7,1-1,1c-0.5,0.1-1.4-1.2-1.4-1.2s-0.8-1.7-0.4-2.1c0.2-0.3,1.1,0,1.5,0.1
		c0.4,0.1,1.1-0.1,1.5,0.1c0.3,0.1,0.7,1,0.7,1s0.2,1.1-0.1,1.3C268.7,63.6,268.3,63.3,268.1,63.3z"/>
	<path class="st1" d="M239.5,83c0.2-0.3-0.3-1.1-0.1-1.5c0.3-0.4,1.8-0.3,1.8-0.3s1.8,0.6,1.8,1.1c0,0.4-0.7,0.8-1,1
		c-0.3,0.2-0.7,0.9-1,1c-0.3,0.1-1.2-0.1-1.2-0.1s-1-0.6-0.9-0.9C238.8,83.2,239.4,83.1,239.5,83z"/>
	<path class="st1" d="M207.7,78.2c0,0.4,0.7,0.9,0.7,1.3c-0.1,0.5-1.6,1-1.6,1s-1.8,0.2-2.1-0.3c-0.2-0.3,0.4-1,0.5-1.4
		s0.3-1.1,0.5-1.4C206,77.2,207,77,207,77s1.1,0.2,1.2,0.5C208.2,77.7,207.8,78,207.7,78.2z"/>
	<path class="st1" d="M129.2,43.5c-0.4,0.1-0.7,1-1,1c-0.5,0.1-1.4-1.2-1.4-1.2s-0.8-1.7-0.4-2.1c0.2-0.3,1.1,0,1.5,0.1
		s1.1-0.1,1.5,0.1c0.3,0.1,0.7,1,0.7,1s0.2,1.1-0.1,1.3C129.8,43.8,129.4,43.4,129.2,43.5z"/>
	<path class="st1" d="M182.5,65.4c-0.3-0.2-0.5-1.8-0.8-1.9c-0.4-0.2-1.6,1.8-1.6,1.8s-1,2.7-0.7,3.4c0.2,0.5,1.1,0.1,1.5,0.1
		c0.4,0,1.1,0.3,1.5,0.1c0.2-0.2,0.3-0.3,0.4-0.5c0.4-0.7,0.6-1.5,0.7-2.4c0-0.4,0-0.7-0.1-0.8C183.1,65,182.7,65.5,182.5,65.4z"/>
	<path class="st1" d="M210.9,61.3c-0.4,0.1-0.7,1-1,1c-0.5,0.1-1.4-1.2-1.4-1.2s-0.8-1.7-0.4-2.1c0.2-0.3,1.1,0,1.5,0.1
		s1.1-0.1,1.5,0.1c0.3,0.1,0.7,1,0.7,1s0.2,1.1-0.1,1.3C211.5,61.6,211.1,61.3,210.9,61.3z"/>
	<path class="st1" d="M249.7,45.7c-0.4,0.1-0.7,1-1,1c-0.5,0.1-1.4-1.2-1.4-1.2s-0.8-1.7-0.4-2.1c0.2-0.3,1.1,0,1.5,0.1
		c0.4,0.1,1.1-0.1,1.5,0.1c0.3,0.1,0.7,1,0.7,1s0.2,1.1-0.1,1.3C250.3,46,249.9,45.6,249.7,45.7z"/>
	<path class="st1" d="M170.1,40.5c-0.4,0.1-0.7,1-1,1c-0.5,0.1-1.4-1.2-1.4-1.2s-0.8-1.7-0.4-2.1c0.2-0.3,1.1,0,1.5,0.1
		s1.1-0.1,1.5,0.1c0.3,0.1,0.7,1,0.7,1s0.2,1.1-0.1,1.3C170.7,40.8,170.3,40.5,170.1,40.5z"/>
	<path class="st1" d="M118.1,56.1c-0.5-0.4-1.5-0.3-1.9-0.8c-0.5-0.6-0.6-2.8-0.6-2.8s0.5-2.2,1.2-2c0.5,0.2,1.2,1.6,1.5,2.1
		s1.3,1.6,1.5,2.1c0.2,0.5,0,1.7,0,1.7s-0.6,1-1.1,0.7C118.5,57.2,118.3,56.4,118.1,56.1z"/>
	<path class="st1" d="M160.8,53.2c-0.4,0.1-0.7,1-1,1c-0.5,0.1-1.4-1.2-1.4-1.2s-0.8-1.7-0.4-2.1c0.2-0.3,1.1,0,1.5,0.1
		s1.1-0.1,1.5,0.1c0.3,0.1,0.7,1,0.7,1s0.2,1.1-0.1,1.3C161.4,53.5,161,53.2,160.8,53.2z"/>
	<path class="st1" d="M152.8,39.5c-0.4,0.1-0.7,1-1,1c-0.5,0.1-1.4-1.2-1.4-1.2s-0.8-1.7-0.4-2.1c0.2-0.3,1.1,0,1.5,0.1
		s1.1-0.1,1.5,0.1c0.3,0.1,0.7,1,0.7,1s0.2,1.1-0.1,1.3C153.4,39.8,153,39.5,152.8,39.5z"/>
	<path class="st1" d="M186.6,46.9c0-0.4-0.9-0.8-0.8-1.2c0-0.5,1.4-1.2,1.4-1.2s1.8-0.4,2.1,0c0.2,0.3-0.2,1.1-0.4,1.4
		c-0.1,0.3-0.1,1.1-0.4,1.4c-0.2,0.2-1.1,0.5-1.1,0.5s-1.1,0-1.3-0.3C186.1,47.4,186.6,47.1,186.6,46.9z"/>
	<path class="st1" d="M299.6,50.2c-0.4,0.1-0.7,1-1,1c-0.5,0.1-1.4-1.2-1.4-1.2s-0.8-1.7-0.4-2.1c0.2-0.3,1.1,0,1.5,0.1
		s1.1-0.1,1.5,0.1c0.3,0.1,0.7,1,0.7,1s0.2,1.1-0.1,1.3C300.2,50.6,299.8,50.2,299.6,50.2z"/>
	<path class="st1" d="M226.5,33.3c-0.4,0.1-0.7,1-1,1c-0.5,0.1-1.4-1.2-1.4-1.2s-0.8-1.7-0.4-2.1c0.2-0.3,1.1,0,1.5,0.1
		s1.1-0.1,1.5,0.1c0.3,0.1,0.7,1,0.7,1s0.2,1.1-0.1,1.3C227.1,33.6,226.7,33.3,226.5,33.3z"/>
	<path class="st1" d="M239.4,66.5c-0.4,0.1-0.7,1-1,1c-0.5,0.1-1.4-1.2-1.4-1.2s-0.8-1.7-0.4-2.1c0.2-0.3,1.1,0,1.5,0.1
		c0.4,0.1,1.1-0.1,1.5,0.1c0.3,0.1,0.7,1,0.7,1s0.2,1.1-0.1,1.3C240,66.8,239.6,66.4,239.4,66.5z"/>
	<path class="st1" d="M221.6,52.2c-0.4,0.1-0.7,1-1,1c-0.5,0.1-1.4-1.2-1.4-1.2s-0.8-1.7-0.4-2.1c0.2-0.3,1.1,0,1.5,0.1
		s1.1-0.1,1.5,0.1c0.3,0.1,0.7,1,0.7,1s0.2,1.1-0.1,1.3C222.2,52.5,221.8,52.1,221.6,52.2z"/>
	<path class="st1" d="M205.3,33.7c-0.4,0.1-0.7,1-1,1c-0.5,0.1-1.4-1.2-1.4-1.2s-0.8-1.7-0.4-2.1c0.2-0.3,1.1,0,1.5,0.1
		c0.4,0.1,1.1-0.1,1.5,0.1c0.3,0.1,0.7,1,0.7,1s0.2,1.1-0.1,1.3C205.9,34.1,205.5,33.7,205.3,33.7z"/>
	<path class="st1" d="M126,64.7c-0.4,0.1-0.7,1-1,1c-0.5,0.1-1.4-1.2-1.4-1.2s-0.8-1.7-0.4-2.1c0.2-0.3,1.1,0,1.5,0.1
		c0.4,0.1,1.1-0.1,1.5,0.1c0.3,0.1,0.7,1,0.7,1s0.2,1.1-0.1,1.3C126.6,65.1,126.2,64.7,126,64.7z"/>
	<path class="st1" d="M222.2,81.8c-0.1-0.3-1.1-0.5-1.2-0.9c-0.1-0.4,1-1.5,1-1.5s1.6-1,2-0.6c0.3,0.2,0.1,1.1,0.1,1.5
		s0.2,1.1,0.1,1.5c-0.1,0.3-0.9,0.8-0.9,0.8s-1.1,0.3-1.3,0.1C221.9,82.5,222.2,82,222.2,81.8z"/>
	<path class="st1" d="M142.9,70.6c0.4,0.1,1.2,1.4,1.6,1.4c0.5,0,0.7-2.3,0.7-2.3s-0.2-2.9-0.8-3.4c-0.4-0.4-1.1,0.3-1.4,0.5
		c-0.3,0.2-1.1,0.2-1.4,0.5c-0.1,0.2-0.1,0.4-0.1,0.7c0,0.8,0.1,1.7,0.4,2.4c0.1,0.4,0.3,0.7,0.4,0.7
		C142.5,71.2,142.7,70.5,142.9,70.6z"/>
	<path class="st1" d="M155.1,85.3c0.3-0.2,0.2-1.2,0.5-1.4c0.4-0.2,1.8,0.5,1.8,0.5s1.4,1.2,1.2,1.7c-0.1,0.4-1,0.4-1.4,0.5
		s-1,0.6-1.4,0.5c-0.3,0-1.1-0.6-1.1-0.6s-0.7-0.9-0.5-1.2C154.4,85.3,154.9,85.4,155.1,85.3z"/>
	<path class="st1" d="M158.2,69.9c0.3-0.2,0.2-1.2,0.5-1.4c0.4-0.2,1.8,0.5,1.8,0.5s1.4,1.2,1.2,1.7c-0.1,0.4-1,0.4-1.4,0.5
		s-1,0.6-1.4,0.5c-0.3,0-1.1-0.6-1.1-0.6s-0.7-0.9-0.5-1.2C157.6,69.8,158.1,70,158.2,69.9z"/>
	<path class="st1" d="M170.9,84.5c0.3-0.2,0.2-1.2,0.5-1.4c0.4-0.2,1.8,0.5,1.8,0.5s1.4,1.2,1.2,1.7c-0.1,0.4-1,0.4-1.4,0.5
		s-1,0.6-1.4,0.5c-0.3,0-1.1-0.6-1.1-0.6s-0.7-0.9-0.5-1.2C170.2,84.5,170.7,84.7,170.9,84.5z"/>
	<path class="st1" d="M137.4,86.4c0.2,0.3,1.1,0.4,1.3,0.7c0.2,0.4-0.8,1.6-0.8,1.6s-1.5,1.1-1.9,0.9c-0.3-0.2-0.2-1.1-0.3-1.4
		c0-0.4-0.4-1.1-0.3-1.4c0.1-0.3,0.8-0.9,0.8-0.9s1-0.5,1.3-0.2C137.6,85.7,137.3,86.2,137.4,86.4z"/>
	<path class="st1" d="M267.5,82.5c-0.1-0.3-1.1-0.5-1.2-0.8c-0.1-0.4,1-1.6,1-1.6s1.6-1,2-0.7c0.3,0.2,0.1,1.1,0.1,1.5
		s0.3,1.1,0.1,1.5c-0.1,0.3-0.9,0.9-0.9,0.9s-1.1,0.4-1.3,0.1C267.3,83.1,267.6,82.6,267.5,82.5z"/>
	<path class="st1" d="M91.2,69c0.2,0.3,1.1,0.4,1.3,0.7c0.2,0.4-0.8,1.7-0.8,1.7s-1.4,1.2-1.9,1c-0.3-0.2-0.3-1.1-0.3-1.4
		c0-0.4-0.4-1.1-0.3-1.4c0.1-0.3,0.8-1,0.8-1s1-0.5,1.3-0.3C91.4,68.4,91.1,68.8,91.2,69z"/>
	<path class="st1" d="M83.2,86.9c0.4,0,1.2,1.4,1.6,1.3c0.5,0,0.6-2.3,0.6-2.3s-0.3-2.9-0.9-3.4c-0.4-0.4-1,0.4-1.4,0.6
		c-0.3,0.2-1.1,0.2-1.4,0.6c-0.1,0.2-0.1,0.4-0.1,0.7c0,0.8,0.1,1.6,0.4,2.4c0.1,0.3,0.3,0.6,0.4,0.7C82.9,87.6,83,86.9,83.2,86.9z"
		/>
	<path class="st1" d="M103.8,105c0.3-0.2,0.1-1.2,0.4-1.4c0.4-0.3,1.8,0.4,1.8,0.4s1.4,1.2,1.3,1.7c-0.1,0.4-1,0.5-1.4,0.6
		c-0.4,0.1-1,0.6-1.4,0.6c-0.3,0-1.1-0.6-1.1-0.6s-0.7-0.9-0.5-1.2C103.2,105,103.7,105.1,103.8,105z"/>
	<path class="st1" d="M106.5,89.5c0.3-0.2,0.1-1.2,0.4-1.4c0.4-0.3,1.8,0.4,1.8,0.4s1.4,1.2,1.3,1.7c-0.1,0.4-1,0.5-1.4,0.6
		c-0.4,0.1-1,0.6-1.4,0.6c-0.3,0-1.1-0.6-1.1-0.6s-0.7-0.9-0.5-1.2C105.8,89.5,106.3,89.6,106.5,89.5z"/>
	<path class="st1" d="M111.8,94.4c0.3-0.2,0.1-1.2,0.4-1.4c0.4-0.3,1.8,0.4,1.8,0.4s1.4,1.2,1.3,1.7c-0.1,0.4-1,0.5-1.3,0.6
		c-0.4,0.1-1,0.6-1.3,0.6c-0.3,0-1.1-0.6-1.1-0.6s-0.7-0.9-0.5-1.2C111.2,94.4,111.7,94.5,111.8,94.4z"/>
	<path class="st1" d="M311.6,84.3c-0.1-0.3-1.1-0.5-1.2-0.8c-0.1-0.4,1-1.6,1-1.6s1.6-1,2-0.7c0.3,0.2,0.1,1.1,0.1,1.5
		c0,0.4,0.3,1.1,0.1,1.5c-0.1,0.3-0.9,0.9-0.9,0.9s-1.1,0.4-1.3,0.1C311.4,85,311.7,84.5,311.6,84.3z"/>
	<path class="st1" d="M194.4,92.3c-0.4,0.1-0.7,1-1,1c-0.5,0.1-1.4-1.2-1.4-1.2s-0.8-1.7-0.4-2.1c0.2-0.3,1.1,0,1.5,0.1
		c0.4,0.1,1.1-0.1,1.5,0.1c0.3,0.1,0.7,1,0.7,1s0.2,1.1-0.1,1.3C195,92.6,194.6,92.3,194.4,92.3z"/>
</g>
</svg>
