<?xml version="1.0" encoding="utf-8"?>
<!-- Generator: Adobe Illustrator 21.1.0, SVG Export Plug-In . SVG Version: 6.00 Build 0)  -->
<svg version="1.1" id="Layer_1" xmlns="http://www.w3.org/2000/svg" xmlns:xlink="http://www.w3.org/1999/xlink" x="0px" y="0px"
	 viewBox="0 0 400 400" style="enable-background:new 0 0 400 400;" xml:space="preserve">
<style type="text/css">
	.st0{fill:#E6DAB3;}
	.st1{fill:#D1A866;}
	.st2{fill:#D6C280;stroke:#685C33;stroke-miterlimit:10;}
</style>
<g id="bottom_bun">
	<g id="bottom_bun_1_">
		<path class="st0" d="M14.3,305.3c0,0,19.2-11.1,30-12.4c10.9-1.3,36.4-6.1,44.5-6.8c8.2-0.7,127.1-8,143.4-10.1s85.3,1.3,94.5,2.4
			c11.1,1.3,19.5-0.2,31.3,4.8c10.6,4.5,25.5,12.1,25.5,12.1l-5.9,4c0,0-6.3,4.4-9.5,5.2s-13.7,4.5-15.7,4.4
			c-1.9,0-11.7,2.8-14.2,2.4s-12.6,2.3-15.3,1.8c-2.7-0.5-20.5,2-20.5,2l-20.1,1.7l-13.7,1c0,0-69.9,2.3-76.7,1.3
			c-6.8-0.9-36-0.9-36-0.9L81,314l-48.7-3.4l-18.7-2.1l-0.6-1.9"/>
		<g id="bottom_bun-2">
			<path class="st1" d="M18.3,325.1c9.9,18.1,40.1,29.8,40.1,29.8c3.1,1.8,26.5,8.9,51.5,14.1c27.8,5.8,57.5,9.7,61.5,10.1
				c6.5,0.5,24.2,1.2,40.9,0.2c18.2-1.1,34.9-5.5,34.9-5.5s23-4,45.2-9.5c19.1-4.8,37.5-11,40.5-12c5.5-1.8,31.6-16.5,44.4-34.4
				c9.3-13,6.3-22.6,6.3-22.6s-2.2,1.4-7.9,4.5c-9,4.8-26.8,8-26.8,8c-10.9,1.8-41,5.2-81.7,8c-41.2,2.8-74.4,0.8-95.4,0.5
				c-38.3-0.5-158.8-9.7-158.8-9.7L18.3,325.1z"/>
		</g>
		<path class="st0" d="M272.5,280.2l-0.8-1.7c0,0,0.7-1.1,1.6-0.6s1.6,2.1,1.7,2.2C275,280.4,272.5,280.2,272.5,280.2z"/>
		<path class="st0" d="M259.8,293l2,0.9c0,0,1,1.7,0,1.7h-2l-0.8-1.3L259.8,293z"/>
		<path class="st0" d="M297.6,297.9c0,0-2.1-2.1-1.7-2.4s1.2-0.5,2.2-1.3s3.2-1.3,3.4-0.7c0.2,0.7,0.4,1.3,0.4,2
			c0,0.8-0.7,1.9-1.5,2.3S297.6,297.9,297.6,297.9z"/>
		<path class="st0" d="M314.5,283c-0.4-1-1.2-1.8,0-2s2.2,0.4,2.2,0.8c0,0.3,0.6,2.2,0,2.1C316.1,283.9,314.5,283,314.5,283z"/>
		<path class="st0" d="M216.1,298.1c1,0.8,2.3,1.5,1,2.6s-2.2,0.7-2.2,0S216.1,298.1,216.1,298.1z"/>
		<path class="st0" d="M195,282.5c0,0-2.1-0.9-2.1,0v2.3c2.4,0.5,3.6,0.6,2.8-0.8L195,282.5z"/>
		<path class="st0" d="M206.2,286.2c-1.5,0.9-2.8-0.3-1.5,0.9c1.3,1.2,3.9,2.8,2.7,0.9L206.2,286.2z"/>
		<path class="st0" d="M216.1,277.8l-1.8,1.2c0,0-0.1,1.7,0.9,2S216.1,277.8,216.1,277.8z"/>
		<path class="st0" d="M161.1,286.2l-1.5,0.9c0,0-1.2-2.9,0-3.1s0.9-2.6,2.2-1.5S161.1,286.2,161.1,286.2z"/>
	</g>
	<g id="bun_texture">
		<path class="st2" d="M338.4,287.7c-0.3,0.1-0.6,1-0.9,1.1c-0.5,0.1-1.5-1.1-1.5-1.1s-0.8-1.7-0.5-2.1c0.2-0.3,1.1,0,1.5,0
			s1.1-0.1,1.5,0c0.3,0.1,0.8,0.9,0.8,0.9s0.3,1.1,0,1.3C339,288,338.6,287.7,338.4,287.7z"/>
		<path class="st0" d="M146.7,288.5c0,0,0.8-2.2,2-2.4c1.2-0.2,1.8,0.3,1.5,1.2C149.9,288.3,146.7,288.5,146.7,288.5z"/>
		<path class="st0" d="M95.8,289.9c-2.5,3.3,1.7,10.8,0.8,5.4L95.8,289.9z"/>
		<path class="st0" d="M80.1,293.5c0,0-2.8-3.8-2.8-1.6s-1.6,1.6,0,2.2s0.4,1.9,1.6,0.7L80.1,293.5z"/>
		<path class="st2" d="M262.5,284c-0.3,0.1-0.6,1-1,1.1c-0.5,0.1-1.5-1.1-1.5-1.1s-0.8-1.7-0.5-2.1c0.2-0.3,1.1,0,1.5,0
			s1.1-0.1,1.5,0c0.3,0.1,0.8,1,0.8,1s0.3,1.1,0,1.3C263.1,284.3,262.7,284,262.5,284z"/>
		<path class="st2" d="M279.2,307.5c-0.3,0.1-0.6,1-1,1.1c-0.5,0.1-1.5-1.1-1.5-1.1s-0.8-1.7-0.5-2.1c0.2-0.3,1.1,0,1.5,0
			s1.1-0.1,1.5,0c0.3,0.1,0.8,1,0.8,1s0.3,1.1,0,1.3C279.8,307.8,279.4,307.4,279.2,307.5z"/>
		<path class="st2" d="M253.9,297.3c-0.3,0.1-0.6,1-0.9,1.1c-0.5,0.1-1.5-1.1-1.5-1.1s-0.8-1.7-0.5-2.1c0.2-0.3,1.1,0,1.5,0
			s1.1-0.1,1.5,0c0.3,0.1,0.8,0.9,0.8,0.9s0.3,1.1,0,1.3C254.6,297.5,254.1,297.2,253.9,297.3z"/>
		<path class="st2" d="M245.2,284c-0.3,0.1-0.6,1-0.9,1.1c-0.5,0.1-1.5-1.1-1.5-1.1s-0.8-1.7-0.5-2.1c0.2-0.3,1.1,0,1.5,0
			s1.1-0.1,1.5,0c0.3,0.1,0.8,1,0.8,1s0.3,1.1,0,1.3C245.8,284.3,245.4,284,245.2,284z"/>
		<path class="st2" d="M299,289.1c-0.3,0.1-0.6,1-1,1.1c-0.5,0.1-1.5-1.1-1.5-1.1s-0.8-1.7-0.5-2.1c0.2-0.3,1.1,0,1.5,0
			s1.1-0.1,1.5,0c0.3,0.1,0.8,1,0.8,1s0.3,1.1,0,1.3C299.7,289.4,299.2,289,299,289.1z"/>
		<path class="st2" d="M178.7,307.5c-0.3,0.1-0.6,1-0.9,1.1c-0.5,0.1-1.5-1.1-1.5-1.1s-0.8-1.7-0.5-2.1c0.2-0.3,1.1,0,1.5,0
			s1.1-0.1,1.5,0c0.3,0.1,0.8,1,0.8,1s0.3,1.1,0,1.3C179.4,307.8,178.9,307.4,178.7,307.5z"/>
		<path class="st2" d="M203.1,310.8c-0.3,0.1-0.6,1-0.9,1.1c-0.5,0.1-1.5-1.1-1.5-1.1s-0.8-1.7-0.5-2.1c0.2-0.3,1.1,0,1.5,0
			s1.1-0.1,1.5,0c0.3,0.1,0.8,1,0.8,1s0.3,1.1,0,1.3C203.7,311.1,203.3,310.7,203.1,310.8z"/>
		<path class="st2" d="M137,299.7c-0.3,0.1-0.6,1-0.9,1.1c-0.5,0.1-1.5-1.1-1.5-1.1s-0.8-1.7-0.5-2.1c0.2-0.3,1.1,0,1.5,0
			s1.1-0.1,1.5,0c0.3,0.1,0.8,1,0.8,1s0.3,1.1,0,1.3C137.6,299.9,137.1,299.6,137,299.7z"/>
		<path class="st2" d="M111.7,302.8c-0.3,0.1-0.6,1-1,1.1c-0.5,0.1-1.5-1.1-1.5-1.1s-0.8-1.7-0.5-2.1c0.2-0.3,1.1,0,1.5,0
			s1.1-0.1,1.5,0c0.3,0.1,0.8,0.9,0.8,0.9s0.3,1.1,0,1.3C112.3,303.1,111.9,302.8,111.7,302.8z"/>
		<path class="st2" d="M94.1,302.8c-0.3,0.1-0.6,1-0.9,1.1c-0.5,0.1-1.5-1.1-1.5-1.1s-0.8-1.7-0.5-2.1c0.2-0.3,1.1,0,1.5,0
			s1.1-0.1,1.5,0c0.3,0.1,0.8,0.9,0.8,0.9s0.3,1.1,0,1.3C94.8,303.1,94.3,302.8,94.1,302.8z"/>
		<path class="st2" d="M156.8,294.6c-0.3,0.1-0.6,1-0.9,1.1c-0.5,0.1-1.5-1.1-1.5-1.1s-0.8-1.7-0.5-2.1c0.2-0.3,1.1,0,1.5,0
			s1.1-0.1,1.5,0c0.3,0.1,0.8,1,0.8,1s0.3,1.1,0,1.3C157.4,294.9,157,294.6,156.8,294.6z"/>
		<path class="st2" d="M320.8,301.3c-0.3,0.1-0.6,1-0.9,1.1c-0.5,0.1-1.5-1.1-1.5-1.1s-0.8-1.7-0.5-2.1c0.2-0.3,1.1,0,1.5,0
			s1.1-0.1,1.5,0c0.3,0.1,0.8,0.9,0.8,0.9s0.3,1.1,0,1.3C321.4,301.6,321,301.3,320.8,301.3z"/>
		<path class="st2" d="M210.2,288.1c-0.3,0.1-0.6,1-0.9,1.1c-0.5,0.1-1.5-1.1-1.5-1.1s-0.8-1.7-0.5-2.1c0.2-0.3,1.1,0,1.5,0
			s1.1-0.1,1.5,0c0.3,0.1,0.8,1,0.8,1s0.3,1.1,0,1.3C210.8,288.4,210.4,288,210.2,288.1z"/>
		<path class="st2" d="M194.8,290.7c-0.3,0.1-0.6,1-1,1.1c-0.5,0.1-1.5-1.1-1.5-1.1s-0.8-1.7-0.5-2.1c0.2-0.3,1.1,0,1.5,0
			s1.1-0.1,1.5,0c0.3,0.1,0.8,1,0.8,1s0.3,1.1,0,1.3C195.4,291,195,290.7,194.8,290.7z"/>
		<path class="st2" d="M66.2,302.8c-0.3,0.1-0.6,1-0.9,1.1c-0.5,0.1-1.5-1.1-1.5-1.1s-0.8-1.7-0.5-2.1c0.2-0.3,1.1,0,1.5,0
			s1.1-0.1,1.5,0c0.3,0.1,0.8,0.9,0.8,0.9s0.3,1.1,0,1.3C66.8,303.1,66.4,302.8,66.2,302.8z"/>
		<path class="st2" d="M180.7,296.3c-0.3,0.1-0.6,1-0.9,1.1c-0.5,0.1-1.5-1.1-1.5-1.1s-0.8-1.7-0.5-2.1c0.2-0.3,1.1,0,1.5,0
			s1.1-0.1,1.5,0c0.3,0.1,0.8,1,0.8,1s0.3,1.1,0,1.3C181.3,296.6,180.9,296.2,180.7,296.3z"/>
		<path class="st2" d="M219.2,296.3c-0.3,0.1-0.6,1-0.9,1.1c-0.5,0.1-1.5-1.1-1.5-1.1s-0.8-1.7-0.5-2.1c0.2-0.3,1.1,0,1.5,0
			s1.1-0.1,1.5,0c0.3,0.1,0.8,1,0.8,1s0.3,1.1,0,1.3C219.8,296.6,219.4,296.2,219.2,296.3z"/>
	</g>
</g>
</svg>
