<?xml version="1.0" encoding="utf-8"?>
<!-- Generator: Adobe Illustrator 21.1.0, SVG Export Plug-In . SVG Version: 6.00 Build 0)  -->
<svg version="1.1" id="Layer_1" xmlns="http://www.w3.org/2000/svg" xmlns:xlink="http://www.w3.org/1999/xlink" x="0px" y="0px"
	 viewBox="0 0 400 400" style="enable-background:new 0 0 400 400;" xml:space="preserve">
<style type="text/css">
	.st0{fill:#F7CA14;stroke:#F3DD09;stroke-miterlimit:10;}
</style>
<g id="cheese_front">
	<g id="cheese_1_">
		<path class="st0" d="M21.1,252.6l1.5,0.6c0,0,23.9,13.3,44.1,22.7c18.7,8.7,18.3,10.9,34.8,18.8c15.1,7.2,18.6,15.7,28.2,24.9
			c9.6,9.3,14.8,18.2,22,17.8s4.3,0.3,11.7-6.7s33-31.4,38.9-37s7.2-9,16.5-12.7s14.4-5.6,20.9-11.4c0,0,1-0.2,11.9-5.3
			c11-5.1,8.9-3.3,26.7-9.3c17.8-5.9,41.9-8,49.5-11s32.5-1,38.2-4.8s10.4-4.4,11.5-8.2c1-3.8,4.8-6-2.8-7.2s-13.7-2.4-21.5-3
			s-10-2.8-20.9-2.6c-10.8,0.2-26.3-2-26.3-2s-28.8-1.6-35.9-2.2c-7-0.6-7.7-0.4-15.6-1.2c-7.8-0.8-33-2.9-38.5-2.8
			c-5.1,0.1-25.9,0.7-25.9,0.7s-37.1,1.6-44.7,2.8c-5.6,0.9-11.7,1.5-18.2,2.9c-4.3,0.9-25.1,5.3-32.3,7.9
			c-7.2,2.6-41.1,7.7-50.8,12.5S21.1,252.6,21.1,252.6z"/>
	</g>
</g>
</svg>
