<?xml version="1.0" encoding="utf-8"?>
<!-- Generator: Adobe Illustrator 21.1.0, SVG Export Plug-In . SVG Version: 6.00 Build 0)  -->
<svg version="1.1" id="Layer_1" xmlns="http://www.w3.org/2000/svg" xmlns:xlink="http://www.w3.org/1999/xlink" x="0px" y="0px"
	 viewBox="0 0 400 400" style="enable-background:new 0 0 400 400;" xml:space="preserve">
<style type="text/css">
	.st0{fill:#572364;}
	.st1{fill:#E8DDCD;}
	.st2{fill:none;stroke:#5F1A56;stroke-miterlimit:10;}
	.st3{fill:#922B74;}
</style>
<g id="onion_1_">
	<g id="onion_2_">
		<g id="onion-2_1_">
			<path class="st0" d="M159.3,133.4h-15.4l-30.1,4.4l-15.7,4.5l-11.6,4l-12.9,5.2l-8.5,3.4l-6.7,2.7l-1.3-0.7
				c0,0,8.7-9.8,12.7-11.9c4-2.1,29.8-10.7,35.5-12.5c5.7-1.8,22.9-4.4,22.9-4.4s12.2-0.7,21.6-0.7c9.4,0,30.3,1.3,30.3,1.3
				l19.3,3.8l-5.7,9.5l-27.1-8l0,0"/>
			<path class="st1" d="M302.7,202.8H288l-25.1-1.6l-11.5-1.8l-11-1.5l-18.3-3.4l-11.9-3.6l-12.7-3.4l-19.9-9.5l10-6.8
				c0,0,31.9,10.6,43.6,12.8c11.7,2.2,10.9,2.6,31.8,4.8s20.4,0,29.1,0s21.5-6.6,21.5-6.6l-4.3-5.8l-9.9-6l-14.2-7.5l-18.3-6.5
				l-9.9-5l-13.4-4.1l-12.4-2.4l-14.9-1.7l-5.3-0.4l-1.6-8.7c0,0,16.4-0.1,20.7,1.2c4.3,1.2,21.2,4.8,21.2,4.8s24.4,8.6,29.8,10.7
				c5.4,2,12.9,4.5,19.1,6.3s8.9,4.5,15.7,9.5c6.8,5,11.1,9.3,13.5,11.5c2.5,2.2,5.8,9.7,5.8,9.7s-0.2,4.2-5.6,6.8"/>
		</g>
		<path class="st2" d="M57.2,156.9l28-11.3l27.3-8.5l30.1-4.4h21.2c0,0-17.8,5.8-19.5,12.1s0.1,12.1,0.1,12.1l9.5,7.9
			c0,0-3.5,4.8-8.3,4.8c-4.7,0-16.7,1.7-21.5,3.1c-4.8,1.4-22.6-2.7-27-2.7s-12.6-1.4-19.5-1.7c-6.8-0.3-15-4.4-18.8-5.5
			C55.1,161.7,57.2,156.9,57.2,156.9z"/>
		<path class="st3" d="M154.5,167.3c0,0-9.4-6.2-10.9-9.5c-0.8-1.8-0.1-7.8-0.1-7.8l6.2,5.5l5.6,3.2l8.4,2.8L154.5,167.3z"/>
		<g id="Layer_12_1_">
			<path class="st1" d="M37.6,150c0,0,22.2-14.5,27.9-16.1s26.7-9.7,34.8-10s24-5.4,34.8-4.5s21-1.7,30.6-0.1s40.6,4.5,42.9,7.3
				c2.3,2.7,1.8,7.3,1.8,7.3l-12.1,0.5l-7.9-3l-9.4-2.8l-8.1-0.8l-13.4-0.2l-37,4.1l-9.6,0.8l-6.7,1.8l-23.1,4.8l-10.6,4.4
				l-15.4,13.3l-10.8,1.8l-11.9-1.8L37.6,150z"/>
		</g>
		<path class="st1" d="M35.8,157.9l19.8-2.7l2.9,9.4l15.2,3.7l13.9,1.6l15.7,1.5l18.5,2.5l13.4-2.2l11.8-1.2l8.9-2.2l9.3-5.8
			l9.6-5.8l9.5-5.7l9.6-9l4.4-7.6l12.5-2.2l0.9,2.7l-1.8,6.4l-4.1,4.9l-5.5,6.8l-7.4,5.2L175,169.3l-4.1,3.5l-5.2,2.7
			c0,0-8.9,5-14.6,5.7c-5.6,0.7-9.7,3.1-14.3,3.7c-4.6,0.6-22,0.7-22,0.7h-4.3c0,0-15.9,0-18.7-0.9s-7.6-2.1-7.6-2.1
			s-16.8-4.1-19.8-5.1c-3.1-0.9-3.9-0.7-6.3-2c-2.5-1.3-7.5-6.1-10.2-6.8s-4.1-1.9-7-3.9S36,160,36,160L35.8,157.9"/>
		<path class="st1" d="M144.9,151c2.4,2.5,5.1,4.6,8,6.5c3,1.8,6.1,3.6,9.1,4c2.6,0.3,3.1,1,3.1,1l2.3-1.4c0,0-2.9-5.9-2.3-8.9
			c0.5-2.9,1.2-3.4,5-5.3c3.6-1.8,4.2-3.5,8.2-4.8s8.6-1.6,8.6-1.6l-10-2.9l-11.7-3.9l-4.5,0.7c0,0-9.8,4.2-12.4,7.8
			c-0.9,1.2-2.1,2.3-2.6,3.6C145,147.4,144.8,149.2,144.9,151l6.2,5.5"/>
		<path class="st3" d="M132.9,194.1c-6.3-0.4-22.7,0-22.7,0s-24.3-3-29.7-3.1c0,0-8.7-2.4-13.5-3.5c-4-0.9-7.9-2.1-11.8-3.5
			c-4.3-1.6-12.8-8.6-12.8-8.6s-6.1-7.8-6.3-8.8s-1.8-6.3-1.8-6.3l7.5,5.9c0,0,12.4,7.8,16.3,9.2s35.3,10,44.9,10s33.7-1,33.7-1
			s21.2-4,30-10.5s31-18.5,33.6-22.4s9.5-15.9,10.3-18.2s2.2,16.2,2.2,16.2s-6.5,10.2-9,12.4c-2.6,2.2-26.1,15.9-26.1,15.9"/>
		<path class="st3" d="M235.3,206.9c0,0-19.1-2.5-26.7-5.9c-9.5-4.3-40.1-20.2-40.1-20.2l12.2-4.4l20.4,8.7c0,0,23.6,6.4,29.2,7.8
			c5.6,1.4,14.8,2.9,22.4,4.9c7.6,2,20.2,2.6,31.7,2.6s18.8,2,26.8,0c8.6-2.2,15.8-5.3,19.8-7.5c4.1-2.2,5.6-6.8,5.6-6.8v6.8
			l-6.1,9.5l-7.1,3.6c0,0-23.1,7-39,5.1"/>
		<path class="st0" d="M214,142.5c0,0,16.6,1.3,23.5,2.7c6.1,1.2,13.2,3.2,19.6,5.5c6.4,2.3,12.4,4.6,20,7.6s13.6,7.4,18.8,9.7
			s15.8,9.4,15.8,9.4l1.9,4.2l-7.5,3.8l-10.2-8l-12-6.8L274,166l-12.6-3.8l-6.8-2.2l-12.7-3.2l-14.5-2.6l-15.1-1.5
			c0,0,2.2-3.9,2.2-5.2C214.4,145.1,214,142.5,214,142.5z"/>
	</g>
</g>
</svg>
