<?xml version="1.0" encoding="utf-8"?>
<!-- Generator: Adobe Illustrator 21.1.0, SVG Export Plug-In . SVG Version: 6.00 Build 0)  -->
<svg version="1.1" id="Layer_1" xmlns="http://www.w3.org/2000/svg" xmlns:xlink="http://www.w3.org/1999/xlink" x="0px" y="0px"
	 viewBox="0 0 400 400" style="enable-background:new 0 0 400 400;" xml:space="preserve">
<style type="text/css">
	.st0{fill:#BF3A27;}
	.st1{fill:#E3A184;}
	.st2{fill:#EC4828;}
	.st3{fill:#F3BCA8;}
</style>
<g id="tomato_1_">
	<g id="tomato">
		<path class="st0" d="M22.1,159.5c0,0-4.4,13.3,0,19.9s20.7,17,20.7,17l17.8,8.3l17.8,6.3c0,0,18.4,4.3,25.9,4.5s16.9,2,23.4,2.7
			c6.5,0.7,78.4,3.6,108.8,1.2c34.6-2.6,51.1-3.1,51.1-3.1L326,211c0,0,25.3-5.2,29.2-11.5c3.9-6.3,3.9-8.1,5.4-15.3s-0.8-17-0.8-17
			l-7.2,9c0,0-2.6,0.4-17.6,5.9c-9.9,3.6-18,2.9-18,2.9s-47.3,3.2-64,6.2c-12.8,2.3-26.9,3.2-37.5,4s-33.9-0.2-33.9-0.2
			s-21.6-0.4-33.1-1.8s-21.2-2.9-21.2-2.9s-28.2-0.2-39.7-2.9s-19.4-0.9-34.9-8.8S22.1,159.5,22.1,159.5z"/>
		<polygon class="st1" points="212.2,141.4 281.8,144.5 304.1,146 308.3,145.7 322.2,151.1 335,156.5 339.7,161.2 333.9,167 
			325.5,173.2 316.8,177.2 305.4,178 288.3,179.2 273.3,178.5 256.3,175.9 242.6,171.2 229.6,163.1 219.2,152.3 		"/>
		<path class="st1" d="M162.5,138.9l32.6,1.3c0,0-2.9,0.9-3.7,1.6c-0.4,0.3-1,1.7-1,1.7c0.1,0.9,0.5,1.8,1.2,2.4
			c1.6,1.6,3.4,3,5.4,4.1c5.3,3.2,10.1,5.6,10.1,5.6l9.2,7.7l7.8,5.8l3.2,2.9c0,0,3.3,4.4-2,7.9s-8.4,4.2-13.2,4.7
			s-16.3,0.5-16.3,0.5l-14-0.4l-18.8-0.9l-16.2-1.7l-16.6-1.7l-7.2-2.1c0,0-1.2-1.1-1.1-3.2c0.2-4.1,7.5-4.3,7.5-4.3l5.7-2.5
			c0,0,3.5-3.1,9.7-4.4s7-1.1,10.7-2.7c4.3-1.9,10.8-6.4,10.8-6.4s1.6-1.4,2-2.2c0.3-0.6,0.4-2.4,0.4-2.4s0.5-2.1-2.5-6.2
			c-1.3-1.8-2.5-2.5-4-3.3c-2.3-1.1-4.7-2-7.2-2.5L162.5,138.9z"/>
		<path class="st1" d="M52.6,149.3c0,0-4.4,3.1,4.8,14.1c6.5,7.8,9.2,5.2,16.1,6.9c14.9,3.6,15.8,2.3,15.8,2.3L107,163l25.5-11.7
			c1.2-0.5,2.4-1.2,3.4-2c2.2-1.8,4.8-5.4,7.8-6.3c2-0.6,2.9-1.5,4-2.1c2.8-1.6,4-2.3,4-2.3l-24.1,2.9l-16.9-1.1H100
			c0,0-15.7,1.9-20,3.7c-3.3,1.4-8.3,2.8-8.3,2.8l-6,0.6L52.6,149.3z"/>
		<path class="st2" d="M21.5,159.8l26.3-9.6l4.8-0.9c0,0-2.4,2.2,1.1,7s0.7,6.1,7,8.7c6.3,2.6,4.3,3.7,12.6,5s11.7,3.5,15.9,1.7
			c4.1-1.7,11.1-6.1,11.1-6.1s27-12,32.1-14.9c5.1-2.9,6.4-6.7,11.9-8.7s4.8-4.5,10.6-3.5s8,1.3,10.9,5.1s4.8,8.6,0,11.7
			c-4.8,3.1-5.1,4-10.6,6.6s-10.3,1.9-15.4,4.5c-5.1,2.6-6,3.5-11.1,5.3c-3.6,1.3-3.9,0.1-6.4,2.6c-0.8,0.8,0.2,3.7,0.2,3.7
			s8.6,2.2,10.8,2.5c11,1.3,11.6,1.1,22.2,2.4s35.6,1.9,39.8,1.9s4.2,1,11.6,0s14.8-0.3,18-5.1c3.1-4.6,2.7-4.2,2.7-4.2
			s1.2-2.9-4.3-6.4s-5.5-4.2-12.2-9.2s-11.2-7.5-14.8-9.8l-3.5-2.2c-4.3-2.8-3.9-6.4,1.9-7.7c5.8-1.3,17,0.2,17,0.2
			s5.9,7.6,8.1,11.7c2.2,4.1,14.5,13.8,22.9,16.7s14.2,4.8,20.3,5.5s4.6,1.1,16,1.1s5.6,1.6,19.5,0c15.2-1.7,16,0.7,25.2-4.8
			s13.9-10.4,13.9-10.7s0-2.9-8.8-5.8c-8.8-2.9-20.5-8.3-20.5-8.3s5.4-3.4,13.9-0.1c8.4,3.3,18,5.1,24.9,10.6
			c4.4,3.5,8.5,7.2,12.4,11.2l-7.7,9.6l-17.7,5.5l-26.6,10.1l-31.9,4l-46.8,7H194l-34.9,2.5l-56.8-5.5l-46.8-10.3l-19.4-10.7
			L21.5,159.8L21.5,159.8"/>
		<path class="st3" d="M73.5,159.7c0,0-9-2.2-8.5-4s0.6-5,2.7-4.6c2,0.4,4.2-1,5.6-1s-0.3-0.6,1.5-1.8s1.9-0.4,4.6-0.7
			s3.5-1.2,3.5-1.2l1.4-0.9c0,0,3,6.3,2.2,7.3s-6.6,6.8-9.7,6.9H73.5z"/>
		<path class="st3" d="M89.8,159.4c0,0,9.4-10.2,10.4-12s3.4-1.8,4.1-0.5s0.5,5.2-0.3,5.8s-1.7,4.9-2.9,5.3c-1.2,0.4-4,0.9-5.8,2.2
			S89.8,159.4,89.8,159.4z"/>
		<path class="st3" d="M109,158c-0.6-0.8,1.7-5.3,2.7-7.3c0.9-2.1,4.3-3.1,5.4-3.1s1.9-0.3,2.4,0s-1.1,1.9,0,2.2s-0.2,3.5-1.3,3.5
			C116.9,153.2,109,158,109,158z"/>
	</g>
	<g id="seeds">
		<path class="st3" d="M275.8,142.8c0,0,5.5-3.8,10.1-1.7s12.9,6.3,15.8,8.7s10.3,5.8,10.3,5.8s-0.4,1.8-5.5,1s-12.4-2-16.1-3.7
			C286.8,151.3,275.5,145.1,275.8,142.8z"/>
		<path class="st3" d="M245.7,152.8c-1.3-2.6-2.5-7.9-2.5-7.9c3.2-0.6,7.4-2.3,9.9,1.9s5.6,9.7,5.6,9.7l2.2,4.8l-7.3-2.4
			C253.6,158.9,247,155.4,245.7,152.8"/>
		<path class="st3" d="M259.1,147.4c0,0-3-6.6,1-6.2c4,0.5,5.1-1.2,8.6,2.3s6.8,4.8,7.1,7s-0.1,5.3-3.5,5.6s-3.3-0.7-5.8-2
			S259.1,147.4,259.1,147.4z"/>
		<path class="st3" d="M208.2,158.2c-2-4.8-16.6-12.5-16.6-12.5s-4.4,19.7,3.8,20.4l11.7,0.6C207.2,166.7,209.1,160.1,208.2,158.2z"
			/>
		<path class="st3" d="M185,148.6c0,0-5.1,7.5-3.7,8.4c1.3,0.9,3.7,3.7,3.7,3.7s2.1-2.7,2.6-4.5C188.2,154.4,185,148.6,185,148.6z"
			/>
		<path class="st3" d="M176.3,145.7c-3,2.9-4.5,4.6-4.8,6.4s0.2,3.5,1.6,4.6c1.4,1.1,1,1.9,2.9-0.6s2.7-10.4,2.7-10.4H176.3z"/>
		<path class="st3" d="M144.7,166c0,0,13.9-14,19.6-12.6c5.7,1.3,2.1,6.3,2.1,6.3s-4.1,9-9.4,9.2C151.8,169.1,144.7,166,144.7,166z"
			/>
	</g>
</g>
</svg>
